<svg xmlns="http://www.w3.org/2000/svg" viewBox="0 0 801.93 237.02"><defs><style>.cls-1{fill:#b3cc95;}.cls-2{fill:#c4d8ac;}.cls-3{fill:#d2e1c1;}.cls-4{fill:#0067ab;}.cls-5{fill:#bad19e;}.cls-6{fill:#bdd3a2;}.cls-7{fill:#b3cc94;}.cls-8{fill:#b7cf99;}.cls-9{fill:#f4f8ef;}.cls-10{fill:#ecf3e5;}.cls-11{fill:#f7faf4;}.cls-12{fill:#eff5e9;}.cls-13{fill:#dde8d0;}.cls-14{fill:#dae6cc;}.cls-15{fill:#e0ead5;}.cls-16{fill:#ebf1e2;}.cls-17{fill:#edf3e6;}.cls-18{fill:#eaf1e1;}.cls-19{fill:#f7faf5;}.cls-20{fill:#d8e4c8;}.cls-21{fill:#edf3e5;}.cls-22{fill:#dce7ce;}.cls-23{fill:#d8e5c9;}.cls-24{fill:#f4f8f0;}.cls-25{fill:#f0f5ea;}.cls-26{fill:#f1f6eb;}.cls-27{fill:#f2f7ed;}.cls-28{fill:#dbe7cd;}.cls-29{fill:#e5edda;}.cls-30{fill:#fafbf8;}.cls-31{fill:#dee9d1;}.cls-32{fill:#e0ebd5;}.cls-33{fill:#f3f7ef;}</style></defs><title>Asset 1</title><g id="Layer_2" data-name="Layer 2"><g id="Layer_1-2" data-name="Layer 1"><path class="cls-1" d="M545.85,0c2.12,1.81,4.77,2.82,6.72,5a15.24,15.24,0,0,1-1.35,22.13A15.4,15.4,0,1,1,533.55,2c1.13-.62,2.21-1.34,3.3-2Z"/><path class="cls-1" d="M708.81,0c3,2.4,6.94,3.55,8.93,7.46,4,7.82,1.76,17-5.59,21.27a15.57,15.57,0,0,1-20.84-5.44C686.76,16,689,6.9,696.5,2.08L699.81,0Z"/><path class="cls-1" d="M749.8,0c2.12,1.81,4.76,2.82,6.72,5a15.23,15.23,0,0,1-1.36,22.13A15.4,15.4,0,1,1,737.5,2c1.12-.62,2.2-1.34,3.3-2Z"/><path class="cls-1" d="M504.86,0c2.91,2.33,6.7,3.37,8.71,7.06,4.3,7.92,2.13,17.3-5.38,21.68-7.21,4.2-16.8,1.53-21.11-5.87s-1.81-16.31,5.93-21c1-.59,1.9-1.24,2.86-1.86Z"/><path class="cls-2" d="M341.91,0c3.65,2.52,7.6,4.69,9.52,9.07a15.06,15.06,0,0,1-7.59,20c-7.85,3.65-16.64.68-20.27-6.84-3.76-7.82-1-16.35,6.49-20.4,1-.54,1.9-1.23,2.85-1.85Z"/><path class="cls-3" d="M300.92,0c5.61,3,10.28,6.72,11,13.58a15.94,15.94,0,0,1-10.83,16.5c-7.29,2.42-15.83-2.2-18.69-8.48-3.14-6.9-.75-14.68,5.85-19.21,1.21-.83,2.47-1.6,3.71-2.39Z"/><path class="cls-1" d="M626.83,0c6.87,3,11.5,7.58,11.2,15.79-.28,8-5.61,13.83-13.92,15-6.29.86-13.93-4.14-15.94-10.44a15.74,15.74,0,0,1,7.18-18.52c1.14-.62,2.32-1.19,3.48-1.79Z"/><path class="cls-4" d="M790.79,0c6.56,3.7,11.35,8.54,10.47,16.82a15.27,15.27,0,0,1-14.44,14c-6.56.55-13.58-4.36-15.59-10.9A15.5,15.5,0,0,1,778.8,1.66c1-.54,2-1.1,3-1.66Z"/><path class="cls-5" d="M422.89,0c7.6,3.26,11.93,8.52,11.12,17.3-.68,7.3-7.82,13.78-15.34,13.56s-14.23-6.42-14.9-13.5c-.83-8.8,3.48-14.09,11.12-17.36Z"/><path class="cls-6" d="M382.9,0c6.55,3.92,11.69,8.62,10.23,17.34-1.35,8.06-6.7,13.08-14.75,13.52-6.26.34-13.43-5.08-15.2-11.51a15.91,15.91,0,0,1,7.75-17.77c1-.56,2.38-.32,3-1.58Z"/><path class="cls-7" d="M585.84,0c10.43,5.07,14,12.52,10.32,21.4-2.42,5.79-9.17,10-15.14,9.4C574.55,30.17,568.43,25,567,19a15.7,15.7,0,0,1,6.63-16.54c1.36-.87,2.8-1.62,4.2-2.43Z"/><path class="cls-4" d="M667.82,0C674,2.94,678.68,7,679,14.44a15.1,15.1,0,0,1-12.19,15.9,15.32,15.32,0,0,1-17.41-9.14A15.71,15.71,0,0,1,655.62,2c1.06-.69,2.63-.57,3.2-2Z"/><path class="cls-8" d="M463.87,0c4.11,2.18,8.05,4.48,10,9.12,3.24,7.86-.57,17.45-8.22,20.46-7.84,3.07-16.85-.57-20-8.07A15.37,15.37,0,0,1,454.25,1a13,13,0,0,0,1.63-1Z"/><path class="cls-9" d="M179,0c4.58,3.4,9.48,6.09,10.33,13,1.12,9-4.11,16.37-13.32,17-2.17.11-3.09-1.39-3.2-3.08-.55-8.41-.86-16.83.18-25.23A3.52,3.52,0,0,1,174,0Z"/><path class="cls-10" d="M221,29a11,11,0,0,1-10,1,5.79,5.79,0,0,1-1.44-3.61q-.36-10.89,0-21.77A5.17,5.17,0,0,1,211.94,0h7l1,1a5.06,5.06,0,0,1,1.36,3.15C221.41,12.44,222.06,20.73,221,29Z"/><path class="cls-11" d="M174,0q0,12.42,0,24.84c0,2-.34,4.08,2,5.15-4.5,2-7.64-.89-11-3-2.78-7.56-1.53-15.29-1-23l6-4Z"/><path class="cls-12" d="M211.94,0c-1.94,4.1-.8,8.45-.95,12.67-.2,5.77-.05,11.54-.05,17.31-3.33-1.11-6.75-2.1-8-6-2.41-6-1.94-12,0-18,1.45-3,5-3.62,7-6Z"/><path class="cls-13" d="M258,30c-2.05,2.09-4.05,0-6.07-.07a5.72,5.72,0,0,1-1.44-3.61q-.36-10.87,0-21.76A5.15,5.15,0,0,1,252.93,0h4a5,5,0,0,1,1.36,3.15C258.44,12.12,259,21.09,258,30Z"/><path class="cls-14" d="M258,30c-1.69-1.44-1-3.39-1-5.14-.06-8.3,0-16.6,0-24.9h3l1,1a5,5,0,0,1,1.36,3.14c.12,8.29.74,16.58-.33,24.85C260.91,30.4,259.37,29.89,258,30Z"/><path class="cls-15" d="M252.93,0c-1.94,4.1-.8,8.44-1,12.67-.2,5.76,0,11.53,0,17.3a5.46,5.46,0,0,1-4-1.95,5.79,5.79,0,0,1-1.47-4.1c.43-7.3-1.67-14.78,1.49-21.89l3-2Z"/><path class="cls-1" d="M582.51,73.88a15.06,15.06,0,0,1,15.32,15.51,15.77,15.77,0,0,1-15.31,15.34c-8.19.18-15.71-7.28-15.63-15.53A15.44,15.44,0,0,1,582.51,73.88Z"/><path class="cls-3" d="M296.48,67c-9.11,0-15.61-6.37-15.51-15.18s6.71-14.93,15.86-14.92a14.63,14.63,0,0,1,15.08,15C311.94,60.89,305.66,67,296.48,67Z"/><path class="cls-2" d="M337.11,67.09c-9,0-15.33-6.43-15.19-15.38.13-8.6,6.57-14.81,15.32-14.79,9,0,15.68,6.52,15.6,15.19C352.75,61,346.27,67.12,337.11,67.09Z"/><path class="cls-4" d="M745.1,36.82A15.3,15.3,0,1,1,729.8,52.3,15.06,15.06,0,0,1,745.1,36.82Z"/><path class="cls-1" d="M541.23,67.15c-9,0-15.43-6.41-15.37-15.26a14.76,14.76,0,0,1,15.16-15c9,0,15.68,6.33,15.73,15.06S550.24,67.16,541.23,67.15Z"/><path class="cls-5" d="M403.89,88.79c.09-8.69,6.85-15.05,15.84-14.9a15.57,15.57,0,0,1,15.06,15.43c0,7.82-7.4,15.31-15.33,15.43A15.59,15.59,0,0,1,403.89,88.79Z"/><path class="cls-6" d="M378.63,73.89a15.06,15.06,0,0,1,15.26,15.59,15.84,15.84,0,0,1-15.39,15.27c-8.23.11-15.68-7.39-15.54-15.63A15.43,15.43,0,0,1,378.63,73.89Z"/><path class="cls-1" d="M623.19,73.88a15.51,15.51,0,0,1,15.53,15.45c0,7.89-7.34,15.29-15.33,15.41a15.56,15.56,0,0,1-15.55-15.47C607.74,80.49,614.32,73.9,623.19,73.88Z"/><path class="cls-4" d="M786.45,73.8a15.28,15.28,0,0,1,15.33,15.6,15.45,15.45,0,0,1-30.9-.22A15.33,15.33,0,0,1,786.45,73.8Z"/><path class="cls-1" d="M500.17,67.15c-8.72-.07-15.13-6.4-15.21-15-.08-8.8,6.83-15.35,16.08-15.24a14.74,14.74,0,0,1,14.82,15.33C515.78,61,509.25,67.23,500.17,67.15Z"/><path class="cls-1" d="M704.39,36.89c8.94,0,15.45,6.39,15.41,15.23,0,8.64-6.38,15-15.09,15-9.1.08-15.61-6.07-15.8-14.92C688.72,43.68,695.54,36.93,704.39,36.89Z"/><path class="cls-7" d="M541.48,73.88A15,15,0,0,1,556.92,89.2a15.33,15.33,0,0,1-15,15.43A15.86,15.86,0,0,1,526,88.92C526.07,80.84,533.23,73.89,541.48,73.88Z"/><path class="cls-2" d="M337.59,73.9c8.91,0,15.35,6.46,15.36,15.37a15.26,15.26,0,0,1-15,15.35c-8.64.08-16.05-7.26-15.9-15.76C322.17,80.8,329.36,73.88,337.59,73.9Z"/><path class="cls-7" d="M760.87,89.4a15.38,15.38,0,0,1-15.18,15.24c-8.74,0-16.05-7.43-15.75-15.92a15.67,15.67,0,0,1,15.68-14.84A15,15,0,0,1,760.87,89.4Z"/><path class="cls-3" d="M281.85,89.5c-.05-9.29,6-15.56,15-15.58,8.85,0,15.07,6.15,15.1,15s-6.47,15.75-15,15.74A14.8,14.8,0,0,1,281.85,89.5Z"/><path class="cls-1" d="M719.89,89.31a15.08,15.08,0,0,1-15,15.32c-8.75.06-15.26-6.6-15.24-15.59s6.48-15.28,15.54-15.16C713.78,74,719.93,80.43,719.89,89.31Z"/><path class="cls-1" d="M516,89.06c0,8.85-6.78,15.75-15.28,15.57a15,15,0,0,1-15-15.34c0-9.08,6.3-15.45,15.29-15.41C509.67,73.91,515.94,80.27,516,89.06Z"/><path class="cls-7" d="M679,89.07c0,9.05-6.36,15.62-15.19,15.58a15.3,15.3,0,0,1-15.08-15.39c0-8.8,6.19-15.27,14.81-15.38C672.59,73.77,679,80,679,89.07Z"/><path class="cls-8" d="M475.05,89.7a14.78,14.78,0,0,1-15.31,14.94c-8.58-.17-15.06-7.12-14.94-16,.12-8.61,6.62-14.82,15.43-14.75S475.14,80.43,475.05,89.7Z"/><path class="cls-1" d="M581.86,36.89a15.27,15.27,0,0,1,15.66,15.26,14.88,14.88,0,0,1-15.29,15c-9.1,0-15.5-6.24-15.46-15.19C566.8,43.22,573.09,36.94,581.86,36.89Z"/><path class="cls-4" d="M786.31,36.82a15.3,15.3,0,1,1-15.67,15C770.7,43.13,777.36,36.73,786.31,36.82Z"/><path class="cls-6" d="M378.26,67.11c-9.14,0-15.45-6.19-15.42-15.19,0-8.74,6.31-15,15.1-15s15.8,6.85,15.62,15.27C393.37,60.85,387,67.09,378.26,67.11Z"/><path class="cls-4" d="M648.37,52.16c0-8.89,6.47-15.38,15.32-15.34A14.91,14.91,0,0,1,679,52.24a15.3,15.3,0,0,1-30.6-.08Z"/><path class="cls-8" d="M444.7,52.11c0-9.09,6.21-15.28,15.25-15.21,8.73.06,15,6.36,15,15.11,0,8.93-6.36,15.16-15.48,15.13S444.7,61.22,444.7,52.11Z"/><path class="cls-5" d="M419.1,67.12c-9.3,0-15.35-5.89-15.36-15.08,0-8.76,6.23-15.09,14.94-15.13,9.05,0,15.39,6.24,15.36,15.21S428.07,67.09,419.1,67.12Z"/><path class="cls-7" d="M623,67.15c-9.23,0-15.35-6-15.32-15.18,0-8.74,6.31-15,15-15.08,9,0,15.36,6.31,15.32,15.29S631.92,67.12,623,67.15Z"/><path class="cls-9" d="M175,74c8.91.61,14.65,6,15,14.14s-4.62,14.55-12,15.84c-1.9,1-3.74.38-3.88-1.5C173.36,92.93,171.81,83.36,175,74Z"/><path class="cls-16" d="M217.94,37c10.35,3,12.49,9.53,12.48,15.59,0,7.22-5.64,13.19-12.48,14.38a6.08,6.08,0,0,1-1.5-4.1q-.27-10.89,0-21.77A6.08,6.08,0,0,1,217.94,37Z"/><path class="cls-17" d="M217.94,37V67c-3-.2-6.15.67-9-1a5.76,5.76,0,0,1-1.45-3.6c-.26-6.74-.22-13.49,0-20.24A8.65,8.65,0,0,1,209,38,22.82,22.82,0,0,1,217.94,37Z"/><path class="cls-11" d="M175,74c0,8.72,0,17.44,0,26.16,0,2.16.09,4.06,3,3.82-4.4,1.75-8.17-.27-12-2a41.77,41.77,0,0,1,0-25A10.93,10.93,0,0,1,175,74Z"/><path class="cls-18" d="M220,74.94c5.46,1.2,10,6.42,10.91,12.55.73,4.92-2.52,11.84-6.93,14.4a38.36,38.36,0,0,1-5,2,7.16,7.16,0,0,1-1.55-5.07c-.09-6.26-.18-12.53.05-18.79C217.51,78.13,216.92,75.56,220,74.94Z"/><path class="cls-19" d="M174,67c-3.94.18-7.46-.7-10-4a104.19,104.19,0,0,1,0-22c2.55-3.29,6.22-3.78,10-4a6.08,6.08,0,0,1,1.5,4.1q.28,10.91,0,21.82A5.32,5.32,0,0,1,174,67Z"/><path class="cls-20" d="M261,38c6.57,2.29,10,7,10,13.77.05,7.2-3.23,11.91-10,14.3-2.31-.19-2.39-2.09-2.47-3.63-.34-6.92-.34-13.86,0-20.78C258.59,40.08,258.65,38.17,261,38Z"/><path class="cls-21" d="M220,74.94c-2,2.33-.89,5.09-.95,7.63-.17,7.12-.06,14.24-.06,21.36-2.66,1.34-5.33.27-8,0a10.44,10.44,0,0,1-1.58-6.11c0-5.77-.05-11.53,0-17.29,0-2.48,0-5,2.54-6.55C214.61,74.36,217.48,73,220,74.94Z"/><path class="cls-22" d="M261,38c-2.3,5.72-.71,11.68-.9,17.51-.11,3.48-1.29,7.23.94,10.56-2.86,1.9-6,.64-9.05.9a5.56,5.56,0,0,1-1.46-3.59c-.26-7.38-.22-14.77,0-22.16a8,8,0,0,1,1.49-4.12C255,37.3,258.11,36,261,38Z"/><path class="cls-23" d="M263,75.91c5.63,2.33,8.63,6.79,8.39,12.62-.27,6.38-1.88,12.52-9.43,14.45-1.53.09-2.06-1-2.18-2.17a114,114,0,0,1,0-22.55C259.9,76.66,260.65,74.92,263,75.91Z"/><path class="cls-18" d="M221,29c-2.06-2.67-.87-5.75-1-8.62-.19-6.46-.06-12.92-.06-19.38,6,2,9.73,6.54,10,12.23C230.38,22.05,228.22,25.86,221,29Z"/><path class="cls-24" d="M174,67V37c3.32,0,6.85-.53,9,3a122,122,0,0,0-.18,21.71A4.8,4.8,0,0,1,182,65C179.68,67.2,176.94,67.6,174,67Z"/><path class="cls-23" d="M262,29c-2-2.31-.91-5.08-1-7.62-.17-6.79-.06-13.58-.06-20.37,6,2,9.66,6.48,10,12.12C271.44,21.17,268.79,25.85,262,29Z"/><path class="cls-25" d="M211.94,74c-1.95,4.09-.8,8.43-.95,12.66-.2,5.76-.05,11.53,0,17.29-3-1.48-6.29-2.71-8-6a23.57,23.57,0,0,1,0-17C204.33,76.54,208.16,75.3,211.94,74Z"/><path class="cls-26" d="M209,38V66c-5.4-2.38-8.61-6.29-9-12.39C199.42,46.29,202.36,41.11,209,38Z"/><path class="cls-27" d="M182,65c-1.59-6.49-.83-13.1-1-19.66,0-2.06.33-3.93,2-5.33C192.22,47.37,191.79,58,182,65Z"/><path class="cls-28" d="M263,75.91A2.1,2.1,0,0,0,261,78.19c.06,7.87.1,15.74.2,23.62,0,.39.53.78.82,1.17-.76,1.1-1.92,1-3,1-1.86.94-3.77.48-3.91-1.47-.69-9.52-2.27-19.1.89-28.51C258.49,73.89,261.07,73.75,263,75.91Z"/><path class="cls-29" d="M247.92,65c-7.37-3.55-10-15.35-4.78-21.63,1.68-2,3.4-4.06,5.8-5.31C249.52,47.07,250.85,56.11,247.92,65Z"/><path class="cls-29" d="M247.94,2q0,13,0,26c-7.95-1.75-9.4-17-3.69-22.79C245.37,4.07,246.7,3.09,247.94,2Z"/><path class="cls-29" d="M247.93,102c-9.71-7.64-9.71-18.44,0-25.94a4.67,4.67,0,0,1,1.45,3.57q.38,9.39,0,18.79A4.77,4.77,0,0,1,247.93,102Z"/><path class="cls-30" d="M166,77q0,12.49,0,25c-7.86-6.25-9.21-14-3.88-22.23C163,78.28,164.05,77,166,77Z"/><path class="cls-31" d="M255.93,74c0,8.72,0,17.44,0,26.16,0,2.19.13,4.05,3,3.82-2.35,2.19-4.68.23-7,0a6.58,6.58,0,0,1-1.52-4.59c-.1-6.74-.15-13.49,0-20.23.05-2,.51-3.94,2.48-5.07Z"/><path class="cls-32" d="M252.92,74c-1.94,4.08-.79,8.42-.94,12.63-.2,5.75,0,11.5,0,17.26a5.45,5.45,0,0,1-4-2q0-13,0-25.94C249.57,75.26,251,74.05,252.92,74Z"/><path class="cls-15" d="M247.92,65c.49-9-1-18,1-26.94l3-1V66.92A5.44,5.44,0,0,1,247.92,65Z"/><path class="cls-30" d="M164,4c2.17,7.58.44,15.33,1,23C157,20.65,156.53,10.38,164,4Z"/><path class="cls-30" d="M164,41a50.16,50.16,0,0,1,0,22C156.71,56.78,156.71,47.16,164,41Z"/><path class="cls-33" d="M203,6q0,9,0,18C198.63,19.44,198.63,12.22,203,6Z"/><path class="cls-33" d="M202.94,80.94v17C198.65,91.76,198.65,85.9,202.94,80.94Z"/><path class="cls-4" d="M66.27,193.41l-7.17-3.26c1-1.89,2.77-2.25,4.14-3C75.6,180.37,75,160,62.08,154.4a55.11,55.11,0,0,0-15.19-4.55C31.25,147.92,15.63,151,0,149.91v84c11-1.39,21.92.26,32.87.66,11.19.41,22.24.17,32.79-4.47,8.48-3.73,10.59-10.94,11.12-19.07S73.8,196.86,66.27,193.41ZM32.9,165.74c2.52.19,5.35,0,8.07,1,3.69,1.38,5.77,4.05,5.77,7.86s-1.36,7.2-5.24,8.84c-4.43,1.88-9.13,1.37-13.76,1.41-2.08,0-1.79-1.58-1.87-2.8-.21-2.81-.28-5.63-.43-8.44C25,165.82,25,165.82,32.9,165.74ZM48.78,211.6c-.75,4-3.54,5.8-7.36,6.29-2.63.34-5.26.83-7.9.94-8,.35-8,.29-8.35-7.79-.05-1.16,0-2.32,0-3.48,0-7.94,0-8,7.88-8.21,4-.12,8,.05,11.49,2.39A9.1,9.1,0,0,1,48.78,211.6Z"/><path class="cls-7" d="M530.1,149c-4.79.43-9.61.62-14.42.74-10.57.25-8.32-1.45-11.44,8.27q-1.22,3.79-2.44,7.59c-4,12.29-8,24.58-12.07,37.11-2-1.79-2.09-3.89-2.67-5.73-4.42-13.93-8.85-27.85-13-41.87-1.15-3.88-2.64-5.88-7.11-5.46a94.7,94.7,0,0,1-15,0c-4.11-.26-6.14,1-7.38,5.21-4.63,15.75-9.72,31.36-15,48.16-.8-2.07-1.26-3.13-1.63-4.22C423,184,417.81,169.25,413,154.38c-1.18-3.68-2.84-4.95-6.65-4.75-6,.32-12,.25-18,0-3.92-.15-5.1.73-3.44,4.75,2.59,6.29,4.66,12.79,7,19.2q10.25,28.35,20.51,56.71c.63,1.72,1,3.73,3.45,3.52,7.12-.61,14.13,1.56,21.36.36,3.64-.61,5.15-1.94,6.07-5.19,2.4-8.47,5-16.89,7.57-25.29,2.23-7.19,4.3-14.45,7.44-21.56,1.93,1.56,2.14,3.44,2.74,5.12,4.93,13.77,9,27.81,12.78,41.92.9,3.35,2.18,5,6,4.84,6.65-.32,13.32-.2,20,0,2.91.07,4.44-.88,5.48-3.75,3.73-10.31,7.88-20.47,11.66-30.76,5.63-15.28,11-30.64,16.66-45.91C535.11,149.63,534,148.6,530.1,149Z"/><path class="cls-7" d="M719.38,200.63c-5.29-6.38-5.18-6.45.66-12.43,7.74-7.91,15.54-15.78,22.86-25.37-9.55,0-18.14,0-26.74,0-2.18,0-3.24,1.5-4.47,2.8q-9.26,9.79-18.44,19.67c-.88.94-1.5,2.27-3.55,1.65,0-13.67-.18-27.43.11-41.18.09-4.46-.91-6.25-5.67-5.83a133.81,133.81,0,0,1-15,.07c-2.53-.06-3.56.81-3.56,3.44q.09,43.47,0,86.93c0,3,1.33,3.61,3.93,3.55,5-.1,10-.22,15,.12,4.15.29,5.47-1.1,5.32-5.3-.31-8.74-.1-17.51-.1-26.26l1.69-.42q11.15,14.33,22.28,28.66c1.12,1.44,1.94,3.15,4.15,3.15h29.22c-1.92-2.44-3.17-4.13-4.52-5.74C734.83,218.94,727,209.85,719.38,200.63Z"/><path class="cls-7" d="M564,161.21c-21.86-.24-39.66,14.6-39.38,36.7.3,23.51,15.15,37.94,39.87,37.93,23.84,0,38.52-14.45,38.58-38C603.9,174.67,585.67,161.45,564,161.21Zm13.42,43.29c-1.68,7.51-7.12,11.72-14.2,11.42-6.28-.26-12.26-6-13.11-13a46.83,46.83,0,0,1-.14-9.47c.61-7,6.34-11.45,14.47-11.47,7.65,0,12.62,4.6,13.62,12.23A29.27,29.27,0,0,1,577.38,204.5Z"/><path class="cls-4" d="M198.07,204.63c.05-8.33.11-16.65-1.17-24.91-1.13-7.3-4.59-12.48-12.11-14.75-14.49-4.37-28.89-3.86-43.35-.05-1.15.3-2.31.58-2.62,2-1.32,5.87-3.15,11.65-3.79,18.57,8.07-6,16.37-8.53,25.47-7.6,5.71.58,11.24,1.95,13.66,8.24,1.18,3.07.52,4.75-3.1,4.89-4.49.17-9,.62-13.45.93-9.1.64-17.17,3.39-23.52,10.42-10.55,11.68-6.14,28.7,9,32.89,9.84,2.72,19.77,3,28.69-3.51,2-1.48,4.27-3.26,5.16,1.11.26,1.3,1.44,1.19,2.41,1.2,6.46,0,12.93,0,19.43,0C197.37,223.92,198,214.26,198.07,204.63ZM175,208.4c-.33,9.27-3.78,11.3-12.42,11.92a7.77,7.77,0,0,1-8.54-7.73c.1-5.6,7.57-10.13,16.29-9.87C174.41,202.84,175.15,203.74,175,208.4Z"/><path class="cls-4" d="M342.6,161.71C328,163.37,317.66,171.36,313,185c-4.74,14-3.2,27.57,7.46,39,14,15.08,38.25,14.27,52.52,8.48.73-.29,1.77-.85,1.88-1.43,1.27-7,4.82-13.44,5.06-21.36-5.77,3.14-10.85,5.67-16.44,6.67-8.91,1.59-17.58,1.5-24.83-5.16-2.51-2.31-3.11-3.83,1.13-5.06,11.31-3.29,22.51-7,33.75-10.49,9.17-2.88,9.17-2.89,5.44-11.92C372.2,167.31,359.87,159.75,342.6,161.71Zm12,24c-.33,1.86-3,1.57-4.63,2.14-4.07,1.41-8.22,2.62-12.35,3.85-2.74.82-4,0-3.76-3.1.4-5.77,5.41-10.91,11.21-10.88a9.08,9.08,0,0,1,6.18,2.26C353.07,181.49,355,183.37,354.57,185.73Z"/><path class="cls-7" d="M794.84,197.35c-5-3.91-10.91-6.35-16.52-9.26-2.24-1.17-4.85-2.61-4.21-5.5.55-2.54,3.11-3.82,5.63-4.4a11.29,11.29,0,0,1,5.93.23c3,1,6,1.83,9,2.86,2,.71,3.32.82,2.77-2-.93-4.72-1.77-9.46-2.65-14.19-.28-1.53-.67-2.93-2.57-3.2-11.5-1.61-22.92-1.91-33.75,3.19-15.27,7.17-14.7,26.28-2.57,34.07,4.45,2.86,8.71,6.09,13.79,8,2.54.94,5.51,2.18,5.11,5.89-.36,3.3-3.17,3.95-5.65,4.87a11.42,11.42,0,0,1-6.33.2c-5.69-1-10.16-4.79-15.71-6.74-.61,3.79.51,7.15,1.18,10.47,2.36,11.72,2.41,12.06,14.16,13.63,10.9,1.46,21.67.59,31.17-5.86C804.17,222.45,804.79,205.1,794.84,197.35Z"/><path class="cls-4" d="M130.82,182.57c1.09-2.25.73-5.21,1-7.86a29.62,29.62,0,0,1,.19-3c1.54-7.6-.78-9.95-10.57-9.49-3.68.17-6.51,2.31-9.11,4.74-1.91,1.79-3.81,3.59-6.13,5.78a37,37,0,0,1-.73-5.44c.07-3.4-1.31-4.63-4.75-4.3-4.8.46-9.63.59-14.44.7-2.28,0-3.17.79-3.17,3.22q.14,31.95,0,63.91c0,2.46.88,3.12,3.19,3.06,5.66-.12,11.33-.25,17,0,3.26.17,3.83-1.05,3.76-4-.22-9.31.35-18.67-.36-27.94-.85-11.2,8.78-17.93,17.17-18.93C126.24,182.82,129.29,185.75,130.82,182.57Z"/><path class="cls-7" d="M655.46,160.87c-7.14.49-13.84,1.81-18.44,8.07-.88,1.2-1.95,2.3-3.64,2.29a2.52,2.52,0,0,1-.38-2.8c1.81-4.82-.45-5.91-4.75-5.55-4.63.39-9.27.7-13.91.78-2.6.05-3.44,1.05-3.45,3.58q0,31.45-.31,62.9c0,3.22,1.3,4,4.17,3.85,5-.18,10-.29,15-.06,3.32.15,4.43-1.05,4.22-4.28-.42-6.62-1.1-13.28-.83-19.89.63-15.77,4.82-28.83,24.47-26.12,1.51.21,2.12-.6,2.13-2,0-5.81.5-11.64-.31-17.43C659.09,161.93,658.06,160.69,655.46,160.87Z"/><path class="cls-4" d="M268.38,187.36c0-14.13-.07-28.26.07-42.38,0-3.1-.61-4.44-4.06-4.31-5.12.19-10.24-.44-15.4-.34-3.74.07-4.32,1.58-4.28,4.79.1,8.14-.11,16.27-.19,24.41-.2,20.27-.36,40.54-.62,60.81,0,3,.92,4,4.09,3.8a120.83,120.83,0,0,1,15.46,0c3.8.22,5.12-.78,5-4.85C268.22,215.29,268.38,201.32,268.38,187.36Z"/><path class="cls-4" d="M303.38,187.39c0-14.16,0-28.31,0-42.46,0-1.78.92-4.23-2.52-4.19-5.81,0-11.59-.77-17.43-.35-2.42.17-3.53.62-3.52,3.38q.13,43.46,0,86.91c0,2.8,1,3.29,3.48,3.23a145.28,145.28,0,0,1,15.48.15c4,.33,4.69-1.11,4.64-4.72C303.26,215.36,303.38,201.37,303.38,187.39Z"/><path class="cls-4" d="M233.39,198.89h-.62c0-10.64-.1-21.29.07-31.93,0-3-.83-4.09-3.93-4-5.31.24-10.65.16-16,0-2.38-.06-3.17.77-3.19,3.14q-.33,32.18-.84,64.33c0,2.26.48,3.29,3,3.25,5.82-.07,11.65,0,17.46.34,3.44.21,4.13-1.15,4.08-4.28C233.29,219.51,233.39,209.2,233.39,198.89Z"/><path class="cls-4" d="M219.83,134.78c-6.2.15-11.4,6-11.34,12.77.06,7.24,5.11,11.82,13,11.81,7.32,0,12.47-4.67,12.44-11.25C233.9,140,228.16,134.57,219.83,134.78Z"/></g></g></svg>